<svg aria-hidden="true" style="position: absolute; width: 0; height: 0; overflow: hidden;" version="1.1" xmlns="http://www.w3.org/2000/svg" xmlns:xlink="http://www.w3.org/1999/xlink">
<defs>
<symbol id="arrow" viewBox="0 0 32 32">
<path d="M31.549 16.86c0.614-0.636 0.596-1.649-0.040-2.262l-10.359-10.003c-0.636-0.614-1.648-0.596-2.262 0.040s-0.596 1.649 0.040 2.262l9.208 8.892-8.892 9.208c-0.614 0.636-0.596 1.648 0.040 2.262s1.648 0.596 2.262-0.040l10.003-10.358zM1.63 17.851l28.796-0.503-0.056-3.2-28.796 0.503 0.056 3.199z"></path>
</symbol>
<symbol id="baby" viewBox="0 0 32 32">
<path d="M29.009 11.988c-1.716-5.554-6.899-9.601-13.009-9.601s-11.293 4.047-13.009 9.601c-1.753 0.522-2.99 2.154-2.99 4.011s1.238 3.49 2.99 4.011c1.716 5.554 6.899 9.601 13.009 9.601s11.293-4.047 13.009-9.601c1.753-0.521 2.991-2.153 2.991-4.011s-1.238-3.49-2.991-4.012zM2.628 18.553c-0.868-0.532-1.434-1.491-1.434-2.553s0.566-2.022 1.434-2.553c-0.158 0.828-0.241 1.681-0.241 2.554s0.083 1.726 0.241 2.553zM16 28.419c-6.848 0-12.419-5.571-12.419-12.419 0-4.736 2.665-8.86 6.573-10.954 0.594 1.263 2.461 4.425 6.889 6.196 0.073 0.029 0.148 0.043 0.221 0.043 0.237 0 0.461-0.142 0.555-0.376 0.122-0.306-0.026-0.654-0.333-0.776-4.023-1.609-5.735-4.525-6.25-5.601 1.356-0.565 2.833-0.897 4.38-0.944 0.414 0.839 1.602 2.809 4.056 3.925 0.080 0.036 0.164 0.054 0.247 0.054 0.227 0 0.444-0.13 0.544-0.35 0.136-0.3 0.004-0.654-0.297-0.79-1.654-0.752-2.646-1.981-3.161-2.804 6.379 0.514 11.412 5.869 11.412 12.378 0 6.848-5.571 12.419-12.419 12.419zM29.371 18.554c0.158-0.828 0.241-1.681 0.241-2.554s-0.084-1.726-0.241-2.554c0.868 0.531 1.435 1.491 1.435 2.554s-0.566 2.022-1.435 2.554z"></path>
<path d="M10.888 15.268c-1.427 0-2.589 1.161-2.589 2.589 0 0.33 0.267 0.597 0.597 0.597s0.597-0.267 0.597-0.597c0-0.769 0.626-1.395 1.395-1.395s1.395 0.626 1.395 1.395c0 0.33 0.267 0.597 0.597 0.597s0.597-0.267 0.597-0.597c0-1.427-1.161-2.589-2.589-2.589z"></path>
<path d="M21.112 15.268c-1.427 0-2.589 1.161-2.589 2.589 0 0.33 0.267 0.597 0.597 0.597s0.597-0.267 0.597-0.597c0-0.769 0.626-1.395 1.395-1.395s1.395 0.626 1.395 1.395c0 0.33 0.267 0.597 0.597 0.597s0.597-0.267 0.597-0.597c0-1.427-1.161-2.589-2.589-2.589z"></path>
<path d="M19.654 21.875c-0.233-0.233-0.611-0.233-0.844 0-1.517 1.517-3.986 1.517-5.504 0-0.233-0.233-0.611-0.233-0.844 0s-0.233 0.611 0 0.844c0.961 0.961 2.239 1.491 3.596 1.491s2.635-0.529 3.596-1.491c0.233-0.233 0.233-0.611-0-0.844z"></path>
<path d="M16.796 18.721h-1.593c-0.33 0-0.597 0.267-0.597 0.597s0.267 0.597 0.597 0.597h1.593c0.33 0 0.597-0.267 0.597-0.597s-0.267-0.597-0.597-0.597z"></path>
</symbol>
<symbol id="check" viewBox="0 0 32 32">
<path d="M4 12l-4 4 12 12 20-20-4-4-16 16-8-8z"></path>
</symbol>
<symbol id="chevron-down" viewBox="0 0 32 32">
<path stroke-linejoin="round" stroke-linecap="round" stroke-miterlimit="4" stroke-width="3.2" d="M8 12l8 8 8-8"></path>
</symbol>
<symbol id="clock" viewBox="0 0 32 32">
<path stroke-linejoin="round" stroke-linecap="round" stroke-miterlimit="4" stroke-width="2.4" d="M16 29.333c7.364 0 13.333-5.97 13.333-13.333s-5.969-13.333-13.333-13.333c-7.364 0-13.333 5.97-13.333 13.333s5.97 13.333 13.333 13.333z"></path>
<path stroke-linejoin="round" stroke-linecap="round" stroke-miterlimit="4" stroke-width="2.4" d="M16 8v8l5.333 2.667"></path>
</symbol>
<symbol id="eye" viewBox="0 0 32 32">
<path stroke-linejoin="round" stroke-linecap="round" stroke-miterlimit="4" stroke-width="3.2" d="M1.333 16c0 0 5.333-10.667 14.667-10.667s14.667 10.667 14.667 10.667c0 0-5.333 10.667-14.667 10.667s-14.667-10.667-14.667-10.667z"></path>
<path stroke-linejoin="round" stroke-linecap="round" stroke-miterlimit="4" stroke-width="3.2" d="M16 20c2.209 0 4-1.791 4-4s-1.791-4-4-4c-2.209 0-4 1.791-4 4s1.791 4 4 4z"></path>
</symbol>
<symbol id="eye-off" viewBox="0 0 32 32">
<path stroke-linejoin="round" stroke-linecap="round" stroke-miterlimit="4" stroke-width="3.2" d="M23.92 23.92c-2.279 1.737-5.055 2.7-7.92 2.747-9.333 0-14.667-10.667-14.667-10.667 1.659-3.091 3.959-5.791 6.747-7.92M13.2 5.653c0.918-0.215 1.857-0.322 2.8-0.32 9.333 0 14.667 10.667 14.667 10.667-0.809 1.514-1.775 2.94-2.88 4.253M18.827 18.827c-0.366 0.393-0.808 0.708-1.298 0.927s-1.020 0.336-1.557 0.346-1.071-0.089-1.569-0.291c-0.498-0.201-0.95-0.5-1.33-0.88s-0.679-0.832-0.88-1.33c-0.201-0.498-0.3-1.032-0.29-1.569s0.127-1.067 0.346-1.557 0.534-0.932 0.927-1.298"></path>
<path stroke-linejoin="round" stroke-linecap="round" stroke-miterlimit="4" stroke-width="3.2" d="M1.333 1.333l29.333 29.333"></path>
</symbol>
<symbol id="heart" viewBox="0 0 32 32">
<path stroke-linejoin="round" stroke-linecap="round" stroke-miterlimit="4" stroke-width="2.4615" d="M27.787 6.147c-0.681-0.681-1.49-1.222-2.38-1.591s-1.844-0.559-2.807-0.559c-0.963 0-1.917 0.19-2.807 0.559s-1.698 0.909-2.379 1.591l-1.413 1.413-1.413-1.413c-1.376-1.376-3.241-2.148-5.187-2.148s-3.811 0.773-5.187 2.148c-1.376 1.376-2.148 3.241-2.148 5.187s0.773 3.811 2.148 5.187l11.787 11.787 11.787-11.787c0.681-0.681 1.222-1.49 1.591-2.379s0.559-1.844 0.559-2.807-0.19-1.917-0.559-2.807c-0.369-0.89-0.909-1.699-1.591-2.38z"></path>
</symbol>
<symbol id="map-pin" viewBox="0 0 32 32">
<path stroke-linejoin="round" stroke-linecap="round" stroke-miterlimit="4" stroke-width="3" d="M28 13.333c0 9.333-12 17.333-12 17.333s-12-8-12-17.333c0-3.183 1.264-6.235 3.515-8.485s5.303-3.515 8.485-3.515c3.183 0 6.235 1.264 8.485 3.515s3.515 5.303 3.515 8.485z"></path>
<symbol id="menu" viewBox="0 0 32 32">
<path stroke-linejoin="round" stroke-linecap="round" stroke-miterlimit="4" stroke-width="2.6667" d="M4 16h24"></path>
<path stroke-linejoin="round" stroke-linecap="round" stroke-miterlimit="4" stroke-width="2.6667" d="M4 8h24"></path>
<path stroke-linejoin="round" stroke-linecap="round" stroke-miterlimit="4" stroke-width="2.6667" d="M4 24h24"></path>
</symbol>
<path stroke-linejoin="round" stroke-linecap="round" stroke-miterlimit="4" stroke-width="3" d="M16 17.333c2.209 0 4-1.791 4-4s-1.791-4-4-4c-2.209 0-4 1.791-4 4s1.791 4 4 4z"></path>
</symbol>
<symbol id="star" viewBox="0 0 32 32">
<path stroke-linejoin="miter" stroke-linecap="butt" stroke-miterlimit="4" stroke-width="2.4" d="M12.4 9.394l3.6-6.822 3.6 6.822c0.318 0.603 0.899 1.025 1.571 1.141l7.601 1.315-5.376 5.532c-0.475 0.489-0.697 1.171-0.6 1.846l1.098 7.635-6.922-3.404c-0.612-0.301-1.329-0.301-1.941 0l-6.922 3.404 1.098-7.635c0.097-0.675-0.125-1.357-0.6-1.846l-5.376-5.532 7.601-1.315c0.672-0.116 1.252-0.538 1.571-1.141zM29.035 11.579v0zM7.767 27.031c0 0 0 0 0 0h-0z"></path>
</symbol>
<symbol id="user" viewBox="0 0 32 32">
<path d="M16 5.333c1.415 0 2.771 0.562 3.771 1.562s1.562 2.357 1.562 3.771-0.562 2.771-1.562 3.771c-1 1-2.357 1.562-3.771 1.562s-2.771-0.562-3.771-1.562c-1-1-1.562-2.357-1.562-3.771s0.562-2.771 1.562-3.771c1-1 2.357-1.562 3.771-1.562zM16 18.667c5.893 0 10.667 2.387 10.667 5.333v2.667h-21.333v-2.667c0-2.947 4.773-5.333 10.667-5.333z"></path>
</symbol>
<symbol id="x" viewBox="0 0 32 32">
<path stroke-linejoin="round" stroke-linecap="round" stroke-miterlimit="4" stroke-width="2.5" d="M24 8l-16 16"></path>
<path stroke-linejoin="round" stroke-linecap="round" stroke-miterlimit="4" stroke-width="2.5" d="M8 8l16 16"></path>
</symbol>
</defs>
</svg>
